<?xml version="1.0" encoding="utf-8"?>

<!DOCTYPE svg PUBLIC "-//W3C//DTD SVG 1.1//EN" "http://www.w3.org/Graphics/SVG/1.1/DTD/svg11.dtd">
<svg width="16px" height="16px" viewBox="0 0 16 16" version="1.1" xmlns="http://www.w3.org/2000/svg" xmlns:xlink="http://www.w3.org/1999/xlink">
<path d="M16 9v-2l-1.7-0.6c-0.2-0.6-0.4-1.2-0.7-1.8l0.8-1.6-1.4-1.4-1.6 0.8c-0.5-0.3-1.1-0.6-1.8-0.7l-0.6-1.7h-2l-0.6 1.7c-0.6 0.2-1.2 0.4-1.7 0.7l-1.6-0.8-1.5 1.5 0.8 1.6c-0.3 0.5-0.5 1.1-0.7 1.7l-1.7 0.6v2l1.7 0.6c0.2 0.6 0.4 1.2 0.7 1.8l-0.8 1.6 1.4 1.4 1.6-0.8c0.5 0.3 1.1 0.6 1.8 0.7l0.6 1.7h2l0.6-1.7c0.6-0.2 1.2-0.4 1.8-0.7l1.6 0.8 1.4-1.4-0.8-1.6c0.3-0.5 0.6-1.1 0.7-1.8l1.7-0.6zM8 12c-2.2 0-4-1.8-4-4s1.8-4 4-4 4 1.8 4 4-1.8 4-4 4z"></path>
</svg>
